<?xml version="1.0" encoding="UTF-8"?>
<svg id="Camada_1" data-name="Camada 1" xmlns="http://www.w3.org/2000/svg" viewBox="0 0 156.37 156.37">
  <defs>
    <style>
      .cls-1 {
        fill: #efefef;
      }
    </style>
  </defs>
  <path class="cls-1" d="M66.84,90.96v9.63l-8.01.02-23.55-48.07c-.75-2.2-1.9-4.02-2.81-6.13h12.31s19.94,40.62,19.94,40.62l2.13,3.92Z"/>
  <path class="cls-1" d="M127.81,91.51c-1.13,1.62-2.46,2.72-3.91,3.91-1.78,1.46-3.76,2.51-5.99,3.32-6.93,2.49-14.71,2.01-21.22-1.53-8.32-4.53-12.61-14.38-12.11-23.63.43-8.37,4.3-17.6,11.18-22.64,3.04-2.21,6.45-3.72,10.13-4.51-4.76,3-7.53,7.9-9.19,13.25-2.73,9.19-1.86,20.89,3.45,29.02,2.51,3.81,6.2,6.97,10.94,7.28,2.3.15,4.47.1,6.71-.42,2.08-.5,4.11-1.12,6.06-2.09l3.95-1.94Z"/>
  <path class="cls-1" d="M127.91,66.31c-.58-3.81-2.02-7.25-4.02-10.63-1.77-3.01-4.31-5.31-7.1-7.39,3.05,1.04,8.84,3.58,11.05-.11l.07,18.13Z"/>
  <path class="cls-1" d="M41.23,100.68h-12.75c4.64-3.25,6.1-9.46,6.58-14.54.27.73.27,1.45.23,2.22.46,4.36,2.25,9.64,5.95,12.32Z"/>
  <polygon class="cls-1" points="89.83 12.41 88.66 13.58 77.96 2.86 67.21 13.58 66.09 12.4 77.94 .54 89.83 12.41"/>
  <path class="cls-1" d="M156.37,78.96l-11.83,11.84c-.41-.27-.7-.56-1.17-1.11l10.7-10.71-10.68-10.7,1.13-1.19,11.85,11.86Z"/>
  <path class="cls-1" d="M89.82,143.97l-11.86,11.86-11.86-11.86,1.13-1.17,10.75,10.73,10.7-10.68c.42.34.64.55,1.14,1.12Z"/>
  <path class="cls-1" d="M2.29,78.98l10.65,10.65c-.27.49-.62.84-1.1,1.17L0,78.96l11.79-11.8c.45.26.82.64,1.17,1.16l-10.67,10.67Z"/>
  <path class="cls-1" d="M73.53,46.44c-4.46,2.91-5.85,7.56-6.57,12.77-.64-5.02-1.75-9.55-6.09-12.77h12.65Z"/>
  <path class="cls-1" d="M92.01,114.66v2.44c-.01.18-.65.22-.65.02l-.02-2.32c0-.5-.3-.89-.72-.93-.4-.02-.89.29-.9.79l-.02,2.44c-.01.09-.34.25-.43.22-.13-.05-.22-.3-.22-.48l-.07-2.53c0-.25-.63-.48-.86-.43-.25.05-.69.39-.69.67v2.28c.01.17-.18.48-.34.5-.15.01-.39-.29-.39-.51l.03-3.28c0-.09.38-.21.43-.14l.27.33c.33-.15.71-.32,1.02-.42.27-.08.75.37,1,.62.4-.31.97-.65,1.46-.59.64.08,1.1.64,1.1,1.34Z"/>
  <path class="cls-1" d="M77.23,116.14l.45-1.58c.01-.07-.46-.16-.48-.09l-.13.32-.37.87c-.58-.63-3.15-2.64-1.68-3.35,1.06-.5,1.51,1.34,1.68.58l.08-.34c-.43-.95-1.51-1.03-2.29-.58-.84.49-.37,1.53-.25,2.22-.47.49-1.24,1.06-1.02,1.85.19.72.74,1.32,1.69,1.29.58-.01,1.33-.41,1.9-.61.34.17.8.78,1.26.4l-.85-.98ZM74.28,116.54c-.26-.16-.43-.75-.35-1.06.09-.33.5-.79.85-.84l1.54,1.54c-.51.59-1.32.82-2.04.35Z"/>
  <path class="cls-1" d="M50.98,116.47l-1.34-.07c-.14-.01-.39-.41-.27-.45.61-.21,2.26-.1,2.16-1.34-.01-.14-.02-.42.06-.5l.51-.51-2.17-.32c-.49-.07-1.09.48-1.26.82-.22.46.3,1.08.27,1.43l-.1,1.29-.41.78c-.1.18.26.67.5.8.73.37,1.91.42,2.68-.29.25-.23.39-.82.26-1.13-.09-.24-.59-.49-.89-.51ZM49.36,114.14c.1-.23.57-.38.94-.34.25.02.61.38.66.59.05.22-.16.8-.39.86-.46.11-.98.05-1.13-.15-.15-.19-.19-.72-.08-.96ZM51.11,117.9c-.57.35-1.83.47-2.08-.32-.24-.81,1.9-.75,2.24-.29.08.1-.05.54-.16.61Z"/>
  <path class="cls-1" d="M32.02,113.9c-.58-.86-1.69-.65-2.32-.02l-.29-.48c-.06-.09-.47.07-.47.21v4.83c.01.17.72.11.71-.07-.02-.27.02-.96.03-1.26.55.14,1.09.27,1.59.14.98-.24,1.56-2.13.74-3.34ZM31.53,116.16c-.13.34-.62.62-.87.65-.26.02-.9-.22-.95-.48-.08-.61-.09-1.29.03-1.84.14-.66,1.25-.85,1.64-.32.37.5.41,1.27.15,1.99Z"/>
  <path class="cls-1" d="M62.72,113.96c-.19-.37-.79-.7-1.2-.64-.34.03-.86.32-1.2.51-.09-.27-.39-.55-.7-.43l-.05,4.79c0,.17.33.49.48.42.13-.06.26-.32.26-.47l.03-1.1c.61.22,1.02.32,1.57.18.94-.23,1.54-1.9.8-3.27ZM62.1,116.29c-.37.64-1.04.61-1.73.24l-.09-1.37c-.02-.47.16-.97.56-1.18.34-.18,1.03-.13,1.25.27.34.61.33,1.48.01,2.04Z"/>
  <path class="cls-1" d="M109.35,111.73c-.08-.15-.64-.14-.65.03l-.05,1.86c-1-.62-2.02-.38-2.48.62-.34.74-.33,1.8.13,2.49.57.86,1.69.66,2.32.07l.35.48c.06.07.39-.1.39-.21v-5.35ZM108.06,116.72c-.38.13-1.03.05-1.2-.34-.3-.69-.3-1.44.05-2.13.11-.22.64-.42.88-.43.25-.01.85.24.86.49l.08,1.3c.03.5-.3.98-.66,1.11Z"/>
  <path class="cls-1" d="M83.56,117.22l-.66.03-.03-3.26-1.65.02-.02,3.11c-.01.17-.56.21-.66.08l-.02-3.11-.63-.38c.51-.38.7-.56.78-1.09.15-.84,1.3-1.08,1.94-1,.09.01.33.4.25.42-.77.22-1.03.09-1.41.43-.18.16-.25.69-.24.95l2.33.07.02,3.71Z"/>
  <path class="cls-1" d="M66.46,117.26l-.09-2.91c-.01-.3-.67-.56-.95-.49-.31.07-.84.41-.84.72l-.05,2.63c-.06.09-.69.06-.69-.13v-5.27c.02-.16.61-.25.69-.17l.07,2.08c.56-.25.95-.4,1.38-.4.35,0,1,.43,1.05.92,0,.01.5,4.03-.58,3.02Z"/>
  <path class="cls-1" d="M97.57,113.84c-.58-.79-1.64-.53-2.26,0l-.42-.49c-.07-.1-.34.33-.34.46v4.37c0,.19.3.49.46.46.11-.03.24-.31.25-.46l.07-1.17c.92.57,1.98.38,2.44-.63.38-.82.31-1.88-.18-2.54ZM96.84,116.54c-.38.39-1.01.24-1.56-.02l-.02-2.06c.37-.53,1.18-.87,1.67-.31.54.61.5,1.78-.09,2.39Z"/>
  <path class="cls-1" d="M36.31,117.29l-.67-.06-.09-2.87c-.01-.38-.65-.59-.93-.48-.39.17-.72.57-.72,1.05v2.28c-.08.08-.69.05-.69-.13v-5.26c-.01-.21.65-.27.66-.14l.09,2.05c.57-.29,1.03-.49,1.46-.37.35.09.85.69.86,1.09l.02,2.84Z"/>
  <path class="cls-1" d="M105.35,115.05c-.13-1.24-1.04-1.82-2.07-1.73-1.01.1-1.62.89-1.65,1.98-.02,1.24.8,2.07,1.97,2.02,1.12-.03,1.89-.97,1.75-2.28ZM103.44,116.8c-.75-.05-1.11-.72-1.1-1.49.01-.78.35-1.42,1.09-1.45.81-.05,1.25.59,1.24,1.52-.01.87-.49,1.45-1.22,1.42Z"/>
  <path class="cls-1" d="M40.77,115.03c-.14-1.21-1.03-1.81-2.13-1.69-.98.1-1.6.94-1.59,2.04.01,1.24.87,2.09,2.16,1.94.98-.11,1.69-1.02,1.56-2.29ZM39.48,116.65c-.46.24-1.21.16-1.49-.34-.33-.63-.32-1.42.06-2.05.22-.37.9-.47,1.24-.35.46.17.77.66.78,1.29.02.64-.18,1.25-.58,1.45Z"/>
  <path class="cls-1" d="M47.92,115.04c-.11-1.21-1.03-1.82-2.07-1.72-1,.1-1.61.9-1.64,1.97-.03,1.25.79,2.08,1.96,2.04,1.13-.03,1.88-.96,1.75-2.29ZM46.76,116.58c-.29.22-.94.25-1.27.07-.39-.23-.59-.85-.58-1.33,0-.81.35-1.44,1.11-1.46.69-.02,1.2.45,1.21,1.4.01.47-.16,1.09-.47,1.33Z"/>
  <path class="cls-1" d="M130.62,114.8v2.37c-.01.17-.66.14-.67-.03l-.08-2.76c-.01-.26-.57-.55-.82-.53-.27.02-.95.34-.95.63l-.03,2.37c0,.14-.13.39-.22.46-.13.1-.5-.17-.5-.39v-3.31c0-.09.26-.3.33-.23l.45.38c.48-.3,1.11-.54,1.64-.38.53.15.88.78.87,1.42Z"/>
  <path class="cls-1" d="M124.64,113.31c-1,.03-1.64.94-1.65,1.99,0,1.13.71,2.09,1.81,2.04,1.04-.06,1.8-.88,1.75-2.12-.05-1.2-.87-1.94-1.91-1.91ZM125.39,116.56c-.23.25-1.08.33-1.3.06-.55-.7-.54-1.8-.03-2.54.21-.32,1.08-.25,1.33-.01.59.57.62,1.81.01,2.49Z"/>
  <path class="cls-1" d="M58.39,114.06c-.26-1-1.69-.9-2.37-.42-.14.1-.3.29-.27.39.02.07.14.22.21.19l.38-.16c.37-.15.82-.25,1.17-.15.3.09.53.98.26,1.1l-1.69.41c-.31.08-.59.7-.58.98,0,.27.29.77.67.87.65.16,1.29-.17,1.7-.37l.64.43c.02-1.18.16-2.24-.11-3.28ZM57.86,116.16c-.07.74-1.27.86-1.61.45-.11-.14-.08-.67.08-.75.42-.19.82-.4,1.44-.31.13.01.1.46.09.62Z"/>
  <path class="cls-1" d="M113.67,113.72v3.11c-.02.07-.05.27-.06.34-.01.09-.32.19-.38.11l-.25-.41c-.46.23-1,.47-1.46.45-.39-.01-1.05-.54-1.06-1.03l-.06-2.64c0-.14.35-.4.45-.33.74.59-.54,3.81,1.3,3.45.25-.05.8-.35.81-.62l.03-2.4c0-.14.11-.39.23-.42.21-.03.45.21.45.39Z"/>
  <path class="cls-1" d="M71.3,113.45l-2.09,4.92c-.08.18-.62.25-.69.1l.59-1.42-1.51-3.56c.26-.14.7-.03.78.14l1.11,2.52,1.06-2.53c.09-.19.51-.33.74-.17Z"/>
  <path class="cls-1" d="M43.72,116.74c-.15.45-.45.55-.79.59-.29.03-1-.24-1.01-.53l-.09-2.79c-.17-.06-.71-.26-.59-.33l.61-.39c.13-.09.11-.5.15-.7l.08-.4c.02-.1.29-.13.39-.09.1.02.07.32.08.5v.71c.02.15.49.11.65.14l.39.06c.09.01.05.23.03.4l-1.09.06.03,2.73,1.16.03Z"/>
  <path class="cls-1" d="M120.55,116.79c-.32.39-.63.51-.96.55-.25.03-.89-.26-.9-.54l-.1-2.72-.66-.39c.3-.21.65-.23.69-.39l.15-.74.07-.33c.02-.1.41-.21.42-.1l.03.49.06.73c.02.3,1.14-.15,1.06.35-.08.56-.75-.01-1.11.38l.03,2.59,1.22.13Z"/>
  <path class="cls-1" d="M117.61,116.72c-.21.51-1.45.85-2.29.34-.45-.26-.81-1.04-.8-1.72,0-.81.37-1.49.95-1.83,1.28-.74,2.64.59,2.02.56-.75-.05-1.13-.42-1.7-.06-.86.57-.57,2.28-.06,2.59.4.23.96.16,1.35-.01l.31-.14c.08-.03.24.18.22.26Z"/>
  <path class="cls-1" d="M55.1,113.62c.02.92-1.61-.17-1.65,1.36l-.03,2.18c-.01.18-.71.1-.71-.11l.05-3.5c0-.08.47-.23.49-.15l.21.59c.43-.66,1.64-.92,1.65-.38Z"/>
  <polygon class="cls-1" points="85.49 111.61 85.49 117.25 84.82 117.28 84.82 111.61 85.49 111.61"/>
  <path class="cls-1" d="M99.84,114.24c-.15.17-.33.62-.33.89v1.98c-.02.15-.54.16-.7.09v-3.65c0-.16.46-.25.49-.15l.24.69c.18-.35.64-.73,1.1-.78.14-.01.45.13.51.23.55.64-.96.32-1.32.7Z"/>
  <path class="cls-1" d="M122.04,113.67v3.52l-.67.03v-3.48c-.01-.13.14-.38.24-.43.11-.05.43.21.43.35Z"/>
  <path class="cls-1" d="M122.2,112.08c.05.18-.24.61-.42.57-.16-.03-.43-.22-.53-.35-.11-.15.18-.57.47-.61.15-.01.45.24.48.39Z"/>
</svg>